<?xml version="1.0" encoding="utf-8"?>
<!-- Generator: Adobe Illustrator 24.3.0, SVG Export Plug-In . SVG Version: 6.00 Build 0)  -->
<svg version="1.1" id="图层_1" xmlns="http://www.w3.org/2000/svg" xmlns:xlink="http://www.w3.org/1999/xlink" x="0px" y="0px"
	 viewBox="0 0 800 450" style="enable-background:new 0 0 800 450;" xml:space="preserve">
<style type="text/css">
	.st0{fill:#231815;}
	.st1{opacity:0.1;fill:#1ED760;}
	.st2{opacity:0.1;fill:url(#SVGID_1_);}
	.st3{opacity:0.25;fill:url(#SVGID_2_);}
	.st4{fill:#C9CACA;}
	.st5{fill:#1ED760;}
	.st6{opacity:0.25;fill:url(#SVGID_7_);}
	.st7{fill:none;stroke:#1ED760;stroke-width:4;stroke-linejoin:bevel;stroke-miterlimit:10;}
	.st8{opacity:0.25;fill:url(#SVGID_10_);}
	.st9{opacity:0.25;fill:url(#SVGID_11_);}
	.st10{opacity:0.42;fill:#1ED760;}
	.st11{opacity:0.5;fill:#1ED760;}
	.st12{opacity:0.1;fill:url(#SVGID_12_);}
	.st13{opacity:0.21;fill:url(#SVGID_13_);}
	.st14{opacity:0.21;fill:url(#SVGID_14_);}
	.st15{opacity:0.21;fill:url(#SVGID_15_);}
	.st16{opacity:0.21;fill:url(#SVGID_16_);}
	.st17{opacity:0.21;fill:url(#SVGID_17_);}
	.st18{opacity:0.25;fill:url(#SVGID_18_);}
	.st19{fill:url(#SVGID_19_);}
	.st20{opacity:0.11;fill:url(#SVGID_20_);}
	.st21{fill:#006934;}
	.st22{opacity:0.25;fill:url(#SVGID_21_);}
	.st23{font-family:'Alibaba-PuHuiTi-B';}
	.st24{font-size:19.1418px;}
	.st25{font-size:26.3932px;}
	.st26{opacity:0.25;fill:url(#SVGID_22_);}
	.st27{opacity:0.21;fill:url(#SVGID_23_);}
	.st28{opacity:0.21;fill:url(#SVGID_24_);}
	.st29{opacity:0.21;fill:url(#SVGID_25_);}
	.st30{opacity:0.21;fill:url(#SVGID_26_);}
	.st31{opacity:0.21;fill:url(#SVGID_27_);}
	.st32{opacity:0.25;fill:url(#SVGID_28_);}
	.st33{opacity:0.25;fill:url(#SVGID_29_);}
	.st34{opacity:0.25;fill:url(#SVGID_30_);}
	.st35{fill:url(#SVGID_31_);}
	.st36{fill:url(#SVGID_32_);}
	.st37{fill:url(#SVGID_33_);}
	.st38{fill:url(#SVGID_34_);}
	.st39{fill:#30AA4F;}
	.st40{opacity:0.84;}
	.st41{fill:url(#SVGID_35_);}
	.st42{fill:url(#SVGID_36_);}
	.st43{fill:url(#SVGID_37_);}
	.st44{fill:url(#SVGID_38_);}
	.st45{fill:url(#SVGID_39_);}
	.st46{fill:url(#SVGID_40_);}
	.st47{fill:none;stroke:#1ED760;stroke-width:2;stroke-miterlimit:10;}
	.st48{fill:url(#SVGID_41_);}
	.st49{fill:url(#SVGID_42_);}
	.st50{opacity:0.7;fill:none;stroke:#FFFFFF;stroke-width:0.5;stroke-miterlimit:10;}
	.st51{fill:url(#SVGID_43_);}
	.st52{fill:url(#SVGID_44_);}
	.st53{opacity:0.3;fill:url(#SVGID_45_);}
	.st54{opacity:0.3;fill:url(#SVGID_46_);}
	.st55{opacity:0.3;fill:url(#SVGID_47_);}
	.st56{opacity:0.3;fill:url(#SVGID_48_);}
	.st57{opacity:0.25;fill:url(#SVGID_51_);}
	.st58{opacity:0.25;fill:url(#SVGID_52_);}
	.st59{opacity:0.3;fill:url(#SVGID_53_);}
	.st60{opacity:0.3;fill:url(#SVGID_54_);}
	.st61{opacity:0.25;fill:url(#SVGID_57_);}
	.st62{opacity:0.3;fill:url(#SVGID_58_);}
	.st63{opacity:0.3;fill:url(#SVGID_59_);}
	.st64{opacity:0.3;fill:url(#SVGID_64_);}
	.st65{fill:none;stroke:#B4EF4C;stroke-width:1.3228;stroke-miterlimit:8;}
	.st66{fill:none;stroke:#7F7F7F;stroke-width:1.3228;stroke-miterlimit:8;}
	.st67{fill:none;stroke:#000000;stroke-width:1.3228;stroke-miterlimit:8;}
	.st68{fill-rule:evenodd;clip-rule:evenodd;fill:#4A5E50;}
	.st69{fill:url(#SVGID_65_);stroke:#8FC31F;stroke-miterlimit:10;}
	.st70{fill:url(#SVGID_66_);stroke:#B5B5B6;stroke-miterlimit:10;}
	.st71{fill:url(#SVGID_67_);stroke:#9FA0A0;stroke-miterlimit:10;}
	.st72{fill:url(#SVGID_68_);stroke:#B2A500;stroke-miterlimit:10;}
	.st73{clip-path:url(#SVGID_70_);}
	.st74{opacity:0.39;}
	.st75{fill-rule:evenodd;clip-rule:evenodd;fill:#FFFFFF;}
	.st76{fill-rule:evenodd;clip-rule:evenodd;fill:#FFC03F;}
	.st77{fill:none;}
	.st78{opacity:0.25;fill:url(#SVGID_71_);}
	.st79{opacity:0.3;fill:url(#SVGID_72_);}
	.st80{opacity:0.3;fill:url(#SVGID_73_);}
	.st81{opacity:0.3;fill:url(#SVGID_74_);}
	.st82{clip-path:url(#SVGID_76_);}
	.st83{opacity:0.25;fill:url(#SVGID_77_);}
	.st84{fill-rule:evenodd;clip-rule:evenodd;fill:#DCDDDD;}
	.st85{fill:none;stroke:#1ED760;stroke-width:0.75;stroke-miterlimit:10;}
	.st86{fill:none;stroke:#1ED760;stroke-width:0.75;stroke-miterlimit:10;stroke-dasharray:11.8975,3.9658;}
	.st87{fill:none;stroke:#1ED760;stroke-width:0.75;stroke-miterlimit:10;stroke-dasharray:12.2427,4.0809;}
	.st88{opacity:0.25;fill:url(#SVGID_78_);}
	.st89{fill:none;stroke:#1ED760;stroke-width:0.75;stroke-miterlimit:10;stroke-dasharray:12.434,4.1447;}
	.st90{opacity:0.25;fill:url(#SVGID_79_);}
	.st91{fill:#4A5E50;}
	.st92{fill:none;stroke:#1CA54A;stroke-miterlimit:10;}
	.st93{opacity:0.21;fill:url(#SVGID_80_);}
	.st94{opacity:0.21;fill:url(#SVGID_81_);}
	.st95{opacity:0.21;fill:url(#SVGID_82_);}
	.st96{opacity:0.21;fill:url(#SVGID_83_);}
	.st97{opacity:0.21;fill:url(#SVGID_84_);}
	.st98{opacity:0.21;fill:url(#SVGID_85_);}
	.st99{fill:#222426;}
	.st100{font-family:'Alibaba-PuHuiTi-R';}
	.st101{font-size:13.0052px;}
	.st102{fill:#B5B5B6;}
	.st103{font-size:10px;}
	.st104{fill:none;stroke:#FFFFFF;stroke-miterlimit:10;}
	.st105{fill:#FFFFFF;}
	.st106{fill:none;stroke:#B5B5B6;stroke-miterlimit:10;}
	.st107{fill:none;stroke:#C9CACA;stroke-miterlimit:10;}
	.st108{opacity:0.25;fill:#1ED760;}
	.st109{fill:url(#SVGID_98_);}
	.st110{fill:none;stroke:#DCDDDD;stroke-width:0.5;stroke-miterlimit:10;}
	.st111{fill:none;stroke:#C9CACA;stroke-width:7;stroke-miterlimit:10;}
	.st112{fill:#FFFFFF;stroke:#FFFFFF;stroke-width:4;stroke-miterlimit:10;}
	.st113{fill:#22AC38;}
	.st114{fill:#030305;}
</style>
<rect width="800" height="450"/>
<linearGradient id="SVGID_1_" gradientUnits="userSpaceOnUse" x1="400" y1="450" x2="400" y2="0">
	<stop  offset="0" style="stop-color:#1ED760"/>
	<stop  offset="1" style="stop-color:#000000;stop-opacity:0"/>
</linearGradient>
<rect style="opacity:0.25;fill:url(#SVGID_1_);" width="800" height="450"/>
<g>
	<text transform="matrix(1 0 0 1 53.9308 89.8011)" class="st5 st23 st24">生成UGC分镜脚本skill</text>
</g>
<g>
	<text transform="matrix(1 0 0 1 76.6904 58.4261)" class="st5 st23 st25">SKILL设计</text>
</g>
<path class="st7" d="M70.4,37.9c0,0-6.7,9-16.5,10.9c0,0,10.9,2.4,16.5,11.2"/>
<path class="st7" d="M201.3,37.9c0,0,6.7,9,16.5,10.9c0,0-10.9,2.4-16.5,11.2"/>
<linearGradient id="SVGID_2_" gradientUnits="userSpaceOnUse" x1="529.2841" y1="101.2381" x2="529.2841" y2="446.9052">
	<stop  offset="0" style="stop-color:#1ED760"/>
	<stop  offset="1" style="stop-color:#000000;stop-opacity:0"/>
</linearGradient>
<path style="opacity:0.3;fill:url(#SVGID_2_);" d="M750.4,446.9H308.1c-6.2,0-11.3-5.1-11.3-11.3V112.5c0-6.2,5.1-11.3,11.3-11.3
	h442.3c6.2,0,11.3,5.1,11.3,11.3v323.1C761.7,441.8,756.7,446.9,750.4,446.9z"/>
<g>
	<defs>
		<path id="SVGID_86_" d="M736.6,442.8H309.7c-5.2,0-9.5-4.2-9.5-9.5V119.9c0-5.2,4.2-9.5,9.5-9.5h426.9c5.2,0,9.5,4.2,9.5,9.5
			v313.4C746.1,438.6,741.8,442.8,736.6,442.8z"/>
	</defs>
	<clipPath id="SVGID_4_">
		<use xlink:href="#SVGID_86_"  style="overflow:visible;"/>
	</clipPath>
	<g transform="matrix(1 0 0 1 0 -7.629395e-06)" style="clip-path:url(#SVGID_4_);">
		
			<image style="overflow:visible;" width="1434" height="1069" xlink:href="D624D124.jpg"  transform="matrix(0.4222 0 0 0.4222 300.2601 110.4619)">
		</image>
	</g>
</g>
<rect x="310.1" y="212.5" class="st99" width="117.4" height="131"/>
<g>
	<polygon class="st84" points="150.1,133.5 154.1,133.5 154.1,138.2 150.1,138.2 150.1,133.5 	"/>
	<polygon class="st84" points="154.1,138.2 158.1,138.2 158.1,149.4 154.1,149.4 154.1,138.2 	"/>
	<polygon class="st84" points="150.1,149.4 154.1,149.4 154.1,153.4 150.1,153.4 150.1,149.4 	"/>
</g>
<g>
	<polygon class="st84" points="65.5,133.5 61.5,133.5 61.5,138.2 65.5,138.2 65.5,133.5 	"/>
	<polygon class="st84" points="61.5,138.2 57.5,138.2 57.5,149.4 61.5,149.4 61.5,138.2 	"/>
	<polygon class="st84" points="65.5,149.4 61.5,149.4 61.5,153.4 65.5,153.4 65.5,149.4 	"/>
</g>
<g>
	<text transform="matrix(0.9994 0 0 1 69.7572 148.4579)" class="st5 st100 st101">收集产品信息</text>
</g>
<g>
	<text transform="matrix(0.9994 0 0 1 204.1947 147.1246)" class="st102 st100 st103">AI反推/扩写</text>
</g>
<g>
	<polygon class="st84" points="150.1,191.2 154.1,191.2 154.1,195.8 150.1,195.8 150.1,191.2 	"/>
	<polygon class="st84" points="154.1,195.8 158.1,195.8 158.1,207.1 154.1,207.1 154.1,195.8 	"/>
	<polygon class="st84" points="150.1,207.1 154.1,207.1 154.1,211 150.1,211 150.1,207.1 	"/>
</g>
<g>
	<polygon class="st84" points="65.5,191.2 61.5,191.2 61.5,195.8 65.5,195.8 65.5,191.2 	"/>
	<polygon class="st84" points="61.5,195.8 57.5,195.8 57.5,207.1 61.5,207.1 61.5,195.8 	"/>
	<polygon class="st84" points="65.5,207.1 61.5,207.1 61.5,211 65.5,211 65.5,207.1 	"/>
</g>
<g>
	<text transform="matrix(0.9994 0 0 1 69.7572 206.1109)" class="st5 st100 st101">收集人物设定</text>
</g>
<g>
	<polygon class="st84" points="150.1,247.8 154.1,247.8 154.1,252.4 150.1,252.4 150.1,247.8 	"/>
	<polygon class="st84" points="154.1,252.4 158.1,252.4 158.1,263.7 154.1,263.7 154.1,252.4 	"/>
	<polygon class="st84" points="150.1,263.7 154.1,263.7 154.1,267.6 150.1,267.6 150.1,263.7 	"/>
</g>
<g>
	<polygon class="st84" points="65.5,247.8 61.5,247.8 61.5,252.4 65.5,252.4 65.5,247.8 	"/>
	<polygon class="st84" points="61.5,252.4 57.5,252.4 57.5,263.7 61.5,263.7 61.5,252.4 	"/>
	<polygon class="st84" points="65.5,263.7 61.5,263.7 61.5,267.6 65.5,267.6 65.5,263.7 	"/>
</g>
<g>
	<text transform="matrix(0.9994 0 0 1 69.7572 262.687)" class="st5 st100 st101">收集场景设定</text>
</g>
<g>
	<polygon class="st84" points="150.1,312.1 154.1,312.1 154.1,316.8 150.1,316.8 150.1,312.1 	"/>
	<polygon class="st84" points="154.1,316.8 158.1,316.8 158.1,328 154.1,328 154.1,316.8 	"/>
	<polygon class="st84" points="150.1,328 154.1,328 154.1,332 150.1,332 150.1,328 	"/>
</g>
<g>
	<polygon class="st84" points="65.5,312.1 61.5,312.1 61.5,316.8 65.5,316.8 65.5,312.1 	"/>
	<polygon class="st84" points="61.5,316.8 57.5,316.8 57.5,328 61.5,328 61.5,316.8 	"/>
	<polygon class="st84" points="65.5,328 61.5,328 61.5,332 65.5,332 65.5,328 	"/>
</g>
<g>
	<text transform="matrix(0.9994 0 0 1 69.7572 317.4966)"><tspan x="0" y="0" class="st5 st100 st101">合并到分镜</tspan><tspan x="0" y="15.6" class="st5 st100 st101">脚本指令模板</tspan></text>
</g>
<g>
	<polygon class="st84" points="150.1,375.6 154.1,375.6 154.1,380.2 150.1,380.2 150.1,375.6 	"/>
	<polygon class="st84" points="154.1,380.2 158.1,380.2 158.1,391.4 154.1,391.4 154.1,380.2 	"/>
	<polygon class="st84" points="150.1,391.4 154.1,391.4 154.1,395.4 150.1,395.4 150.1,391.4 	"/>
</g>
<g>
	<polygon class="st84" points="65.5,375.6 61.5,375.6 61.5,380.2 65.5,380.2 65.5,375.6 	"/>
	<polygon class="st84" points="61.5,380.2 57.5,380.2 57.5,391.4 61.5,391.4 61.5,380.2 	"/>
	<polygon class="st84" points="65.5,391.4 61.5,391.4 61.5,395.4 65.5,395.4 65.5,391.4 	"/>
</g>
<g>
	<text transform="matrix(0.9994 0 0 1 69.7572 389.0507)" class="st5 st100 st101">生成分镜脚本</text>
</g>
<g>
	<g>
		<line class="st104" x1="105.8" y1="159.8" x2="105.8" y2="182"/>
		<g>
			<path class="st105" d="M105.8,181.6c1-1,3.1-1.5,4.5-1.6c-1.9,1.4-3.6,3.3-4.5,5.5c-0.9-2.3-2.7-4-4.5-5.5
				C102.8,180.1,104.6,180.5,105.8,181.6z"/>
		</g>
	</g>
</g>
<g>
	<g>
		<line class="st107" x1="171.6" y1="143.8" x2="193.8" y2="143.8"/>
		<g>
			<path class="st4" d="M193.4,143.8c-1-1-1.5-3.1-1.6-4.5c1.4,1.9,3.3,3.6,5.5,4.5c-2.3,0.9-4,2.7-5.5,4.5
				C191.9,146.8,192.3,144.9,193.4,143.8z"/>
		</g>
	</g>
</g>
<g>
	<text transform="matrix(0.9994 0 0 1 204.1947 204.7776)" class="st102 st100 st103">AI扩写</text>
</g>
<g>
	<g>
		<line class="st107" x1="171.6" y1="201.5" x2="193.8" y2="201.5"/>
		<g>
			<path class="st4" d="M193.4,201.5c-1-1-1.5-3.1-1.6-4.5c1.4,1.9,3.3,3.6,5.5,4.5c-2.3,0.9-4,2.7-5.5,4.5
				C191.9,204.5,192.3,202.6,193.4,201.5z"/>
		</g>
	</g>
</g>
<g>
	<text transform="matrix(0.9994 0 0 1 204.1947 262.4305)" class="st102 st100 st103">AI扩写</text>
</g>
<g>
	<g>
		<line class="st107" x1="171.6" y1="259.1" x2="193.8" y2="259.1"/>
		<g>
			<path class="st4" d="M193.4,259.1c-1-1-1.5-3.1-1.6-4.5c1.4,1.9,3.3,3.6,5.5,4.5c-2.3,0.9-4,2.7-5.5,4.5
				C191.9,262.1,192.3,260.3,193.4,259.1z"/>
		</g>
	</g>
</g>
<g>
	<g>
		<line class="st104" x1="105.8" y1="217.2" x2="105.8" y2="239.4"/>
		<g>
			<path class="st105" d="M105.8,239c1-1,3.1-1.5,4.5-1.6c-1.9,1.4-3.6,3.3-4.5,5.5c-0.9-2.3-2.7-4-4.5-5.5
				C102.8,237.6,104.6,237.9,105.8,239z"/>
		</g>
	</g>
</g>
<g>
	<g>
		<line class="st104" x1="105.8" y1="272.5" x2="105.8" y2="294.8"/>
		<g>
			<path class="st105" d="M105.8,294.4c1-1,3.1-1.5,4.5-1.6c-1.9,1.4-3.6,3.3-4.5,5.5c-0.9-2.3-2.7-4-4.5-5.5
				C102.8,292.9,104.6,293.3,105.8,294.4z"/>
		</g>
	</g>
</g>
<g>
	<g>
		<line class="st104" x1="105.8" y1="343.4" x2="105.8" y2="365.7"/>
		<g>
			<path class="st105" d="M105.8,365.3c1-1,3.1-1.5,4.5-1.6c-1.9,1.4-3.6,3.3-4.5,5.5c-0.9-2.3-2.7-4-4.5-5.5
				C102.8,363.8,104.6,364.2,105.8,365.3z"/>
		</g>
	</g>
</g>
<g>
	<defs>
		<rect id="SVGID_96_" x="-695.7" y="101.2" width="690.6" height="379.8"/>
	</defs>
	<clipPath id="SVGID_6_">
		<use xlink:href="#SVGID_96_"  style="overflow:visible;"/>
	</clipPath>
	<g style="clip-path:url(#SVGID_6_);">
		
			<image style="overflow:visible;" width="540" height="138" xlink:href="D624D125.jpg"  transform="matrix(1.6744 0 0 1.6744 -695.7398 158.539)">
		</image>
	</g>
</g>
</svg>
