<?xml version="1.0" encoding="utf-8"?>
<!-- Generator: Adobe Illustrator 24.3.0, SVG Export Plug-In . SVG Version: 6.00 Build 0)  -->
<svg version="1.1" id="图层_1" xmlns="http://www.w3.org/2000/svg" xmlns:xlink="http://www.w3.org/1999/xlink" x="0px" y="0px"
	 viewBox="0 0 800 450" style="enable-background:new 0 0 800 450;" xml:space="preserve">
<style type="text/css">
	.st0{fill:#231815;}
	.st1{opacity:0.1;fill:#1ED760;}
	.st2{opacity:0.1;fill:url(#SVGID_1_);}
	.st3{opacity:0.25;fill:url(#SVGID_2_);}
	.st4{fill:#C9CACA;}
	.st5{fill:#1ED760;}
	.st6{opacity:0.25;fill:url(#SVGID_7_);}
	.st7{fill:#FFFFFF;}
	.st8{font-family:'Alibaba-PuHuiTi-B';}
	.st9{font-size:14.1666px;}
	.st10{font-family:'Alibaba-PuHuiTi-R';}
	.st11{font-size:14.8081px;}
	.st12{fill:none;stroke:#1ED760;stroke-width:4;stroke-linejoin:bevel;stroke-miterlimit:10;}
	.st13{font-size:26.3932px;}
	.st14{opacity:0.25;fill:url(#SVGID_10_);}
	.st15{opacity:0.25;fill:url(#SVGID_11_);}
	.st16{opacity:0.42;fill:#1ED760;}
	.st17{opacity:0.5;fill:#1ED760;}
	.st18{opacity:0.1;fill:url(#SVGID_12_);}
	.st19{opacity:0.21;fill:url(#SVGID_13_);}
	.st20{opacity:0.21;fill:url(#SVGID_14_);}
	.st21{opacity:0.21;fill:url(#SVGID_15_);}
	.st22{opacity:0.21;fill:url(#SVGID_16_);}
	.st23{opacity:0.21;fill:url(#SVGID_17_);}
	.st24{opacity:0.25;fill:url(#SVGID_18_);}
	.st25{fill:none;}
	.st26{font-family:'FZLTHProS-L--GB1-0';}
	.st27{font-size:12px;}
	.st28{fill:url(#SVGID_19_);}
	.st29{opacity:0.11;fill:url(#SVGID_20_);}
	.st30{fill:#006934;}
	.st31{opacity:0.25;fill:url(#SVGID_21_);}
	.st32{opacity:0.25;fill:url(#SVGID_22_);}
	.st33{opacity:0.21;fill:url(#SVGID_23_);}
	.st34{opacity:0.21;fill:url(#SVGID_24_);}
	.st35{opacity:0.21;fill:url(#SVGID_25_);}
	.st36{opacity:0.21;fill:url(#SVGID_26_);}
	.st37{opacity:0.21;fill:url(#SVGID_27_);}
	.st38{opacity:0.25;fill:url(#SVGID_28_);}
	.st39{opacity:0.25;fill:url(#SVGID_29_);}
	.st40{opacity:0.25;fill:url(#SVGID_30_);}
	.st41{fill:url(#SVGID_31_);}
	.st42{fill:url(#SVGID_32_);}
	.st43{fill:url(#SVGID_33_);}
	.st44{fill:url(#SVGID_34_);}
	.st45{fill:#30AA4F;}
	.st46{opacity:0.84;}
	.st47{fill:url(#SVGID_35_);}
	.st48{fill:url(#SVGID_36_);}
	.st49{fill:url(#SVGID_37_);}
	.st50{fill:url(#SVGID_38_);}
	.st51{fill:url(#SVGID_39_);}
	.st52{fill:url(#SVGID_40_);}
	.st53{fill:none;stroke:#1ED760;stroke-width:2;stroke-miterlimit:10;}
	.st54{fill:url(#SVGID_41_);}
	.st55{fill:url(#SVGID_42_);}
	.st56{opacity:0.7;fill:none;stroke:#FFFFFF;stroke-width:0.5;stroke-miterlimit:10;}
	.st57{fill:url(#SVGID_43_);}
	.st58{fill:url(#SVGID_44_);}
	.st59{opacity:0.3;fill:url(#SVGID_45_);}
	.st60{opacity:0.3;fill:url(#SVGID_46_);}
	.st61{opacity:0.3;fill:url(#SVGID_47_);}
	.st62{opacity:0.3;fill:url(#SVGID_48_);}
	.st63{opacity:0.25;fill:url(#SVGID_51_);}
	.st64{opacity:0.25;fill:url(#SVGID_52_);}
	.st65{opacity:0.3;fill:url(#SVGID_53_);}
	.st66{opacity:0.3;fill:url(#SVGID_54_);}
	.st67{opacity:0.25;fill:url(#SVGID_57_);}
	.st68{opacity:0.3;fill:url(#SVGID_58_);}
	.st69{opacity:0.3;fill:url(#SVGID_59_);}
	.st70{opacity:0.3;fill:url(#SVGID_64_);}
	.st71{fill:none;stroke:#B4EF4C;stroke-width:1.3228;stroke-miterlimit:8;}
	.st72{fill:none;stroke:#7F7F7F;stroke-width:1.3228;stroke-miterlimit:8;}
	.st73{fill:none;stroke:#000000;stroke-width:1.3228;stroke-miterlimit:8;}
	.st74{fill-rule:evenodd;clip-rule:evenodd;fill:#4A5E50;}
	.st75{fill:url(#SVGID_65_);stroke:#8FC31F;stroke-miterlimit:10;}
	.st76{fill:url(#SVGID_66_);stroke:#B5B5B6;stroke-miterlimit:10;}
	.st77{fill:url(#SVGID_67_);stroke:#9FA0A0;stroke-miterlimit:10;}
	.st78{fill:url(#SVGID_68_);stroke:#B2A500;stroke-miterlimit:10;}
	.st79{clip-path:url(#SVGID_70_);}
	.st80{font-size:29.9065px;}
	.st81{opacity:0.39;}
	.st82{font-size:12.7172px;}
	.st83{fill-rule:evenodd;clip-rule:evenodd;fill:#FFFFFF;}
	.st84{fill-rule:evenodd;clip-rule:evenodd;fill:#FFC03F;}
	.st85{opacity:0.25;fill:url(#SVGID_71_);}
	.st86{opacity:0.3;fill:url(#SVGID_72_);}
	.st87{opacity:0.3;fill:url(#SVGID_73_);}
	.st88{opacity:0.3;fill:url(#SVGID_74_);}
	.st89{clip-path:url(#SVGID_76_);}
	.st90{opacity:0.25;fill:url(#SVGID_77_);}
	.st91{fill-rule:evenodd;clip-rule:evenodd;fill:#DCDDDD;}
	.st92{fill:none;stroke:#1ED760;stroke-width:0.75;stroke-miterlimit:10;}
	.st93{fill:none;stroke:#1ED760;stroke-width:0.75;stroke-miterlimit:10;stroke-dasharray:11.8975,3.9658;}
	.st94{fill:none;stroke:#1ED760;stroke-width:0.75;stroke-miterlimit:10;stroke-dasharray:12.2427,4.0809;}
	.st95{opacity:0.25;fill:url(#SVGID_78_);}
	.st96{fill:none;stroke:#1ED760;stroke-width:0.75;stroke-miterlimit:10;stroke-dasharray:12.434,4.1447;}
	.st97{opacity:0.25;fill:url(#SVGID_79_);}
	.st98{fill:#4A5E50;}
	.st99{fill:none;stroke:#1CA54A;stroke-miterlimit:10;}
	.st100{opacity:0.21;fill:url(#SVGID_80_);}
	.st101{opacity:0.21;fill:url(#SVGID_81_);}
	.st102{opacity:0.21;fill:url(#SVGID_82_);}
	.st103{opacity:0.21;fill:url(#SVGID_83_);}
	.st104{opacity:0.21;fill:url(#SVGID_84_);}
	.st105{opacity:0.21;fill:url(#SVGID_85_);}
	.st106{fill:#222426;}
	.st107{fill:none;stroke:#FFFFFF;stroke-miterlimit:10;}
	.st108{fill:none;stroke:#B5B5B6;stroke-miterlimit:10;}
	.st109{fill:#B5B5B6;}
	.st110{fill:none;stroke:#C9CACA;stroke-miterlimit:10;}
	.st111{opacity:0.25;fill:#1ED760;}
	.st112{fill:url(#SVGID_98_);}
	.st113{fill:none;stroke:#DCDDDD;stroke-width:0.5;stroke-miterlimit:10;}
	.st114{fill:none;stroke:#C9CACA;stroke-width:7;stroke-miterlimit:10;}
	.st115{fill:#FFFFFF;stroke:#FFFFFF;stroke-width:4;stroke-miterlimit:10;}
	.st116{fill:#22AC38;}
	.st117{fill:#030305;}
</style>
<rect width="800" height="450"/>
<linearGradient id="SVGID_1_" gradientUnits="userSpaceOnUse" x1="400" y1="450" x2="400" y2="0">
	<stop  offset="0" style="stop-color:#1ED760"/>
	<stop  offset="1" style="stop-color:#000000;stop-opacity:0"/>
</linearGradient>
<rect style="opacity:0.25;fill:url(#SVGID_1_);" width="800" height="450"/>
<g>
	<text transform="matrix(1 0 0 1 283.3477 262.0577)" class="st7 st8 st9">5.22</text>
</g>
<g>
	<text transform="matrix(1 0 0 1 413.3074 325.7742)" class="st7 st8 st9">1976</text>
</g>
<g>
	<text transform="matrix(1 0 0 1 547.0616 223.1005)" class="st7 st8 st9">32817.42</text>
</g>
<g>
	<text transform="matrix(1 0 0 1 283.8857 245.4178)" class="st5 st10 st9">整体支付ROI</text>
</g>
<g>
	<text transform="matrix(1 0 0 1 412.7449 308.3019)" class="st5 st10 st11">整体观看次数</text>
</g>
<g>
	<text transform="matrix(1 0 0 1 547.062 206.1315)" class="st5 st10 st11">整体成交额</text>
</g>
<g>
	<text transform="matrix(1 0 0 1 76.6904 58.1377)" class="st5 st8 st13">数据反馈验证结果</text>
</g>
<path class="st12" d="M70.4,37.9c0,0-6.7,9-16.5,10.9c0,0,10.9,2.4,16.5,11.2"/>
<path class="st12" d="M289,37.9c0,0,6.7,9,16.5,10.9c0,0-10.9,2.4-16.5,11.2"/>
<rect x="51.6" y="83" class="st25" width="414.2" height="78.2"/>
<text transform="matrix(1 0 0 1 51.5945 93.2237)"><tspan x="0" y="0" class="st7 st26 st27">策略转向‘高UGC内容 + Python脚本矩阵裂变’后，账号核心转化指标迎来</tspan><tspan x="0" y="14.7" class="st7 st26 st27">显著变化。</tspan><tspan x="0" y="29.3" class="st7 st26 st27">虽ai直播矩阵项目按下暂停键，但这套方法可以继续赋能在其他业务项目：素</tspan><tspan x="0" y="44" class="st7 st26 st27">材管理中心</tspan></text>
<g>
	<polygon class="st74" points="143,284.1 204,284.1 204,287.7 208.8,287.7 208.8,302 204,302 204,305.1 143,305.1 143,302 
		138.2,302 138.2,287.7 143,287.7 143,284.1 143,284.1 	"/>
	<polygon class="st74" points="172,305.3 175.9,305.3 175.9,308.6 172,308.6 172,305.3 	"/>
	<polygon class="st74" points="175.9,308.6 179.2,308.6 179.2,312.6 175.9,312.6 175.9,308.6 	"/>
</g>
<g>
	<polygon class="st74" points="10.9,403.6 233.3,403.6 233.3,450 10.9,450 10.9,403.6 	"/>
	<polygon class="st74" points="0,411.6 10.9,411.6 10.9,442 0,442 0,411.6 	"/>
	<polygon class="st74" points="233.3,411.6 244.1,411.6 244.1,442 233.3,442 233.3,411.6 	"/>
</g>
<linearGradient id="SVGID_2_" gradientUnits="userSpaceOnUse" x1="323.4381" y1="268.1102" x2="323.4381" y2="450">
	<stop  offset="0" style="stop-color:#B3EE4C"/>
	<stop  offset="1" style="stop-color:#000000;stop-opacity:0"/>
</linearGradient>
<rect x="285" y="268.1" style="fill:url(#SVGID_2_);stroke:#8FC31F;stroke-miterlimit:10;" width="76.9" height="181.9"/>
<linearGradient id="SVGID_4_" gradientUnits="userSpaceOnUse" x1="454.4722" y1="343.063" x2="454.4722" y2="450">
	<stop  offset="0" style="stop-color:#FFFFFF"/>
	<stop  offset="1" style="stop-color:#000000;stop-opacity:0"/>
</linearGradient>
<rect x="416" y="343.1" style="fill:url(#SVGID_4_);stroke:#B5B5B6;stroke-miterlimit:10;" width="76.9" height="106.9"/>
<linearGradient id="SVGID_6_" gradientUnits="userSpaceOnUse" x1="585.5062" y1="234.2392" x2="585.5062" y2="450">
	<stop  offset="0" style="stop-color:#898989"/>
	<stop  offset="1" style="stop-color:#000000;stop-opacity:0"/>
</linearGradient>
<rect x="547.1" y="234.2" style="fill:url(#SVGID_6_);stroke:#9FA0A0;stroke-miterlimit:10;" width="76.9" height="215.8"/>
<linearGradient id="SVGID_7_" gradientUnits="userSpaceOnUse" x1="716.5403" y1="0.4777" x2="716.5403" y2="450">
	<stop  offset="0" style="stop-color:#FEC03E"/>
	<stop  offset="1" style="stop-color:#000000;stop-opacity:0"/>
</linearGradient>
<rect x="678.1" y="0.5" style="fill:url(#SVGID_7_);stroke:#B2A500;stroke-miterlimit:10;" width="76.9" height="449.5"/>
<g>
	<text transform="matrix(1 0 0 1 680.0959 58.0239)" class="st5 st10 st11">成交额同比</text>
</g>
<g>
	<text transform="matrix(1 0 0 1 681.8986 76.9577)" class="st7 st8 st9">+646.36%</text>
</g>
<g>
	<text transform="matrix(1 0 0 1 66.2631 437.8982)" class="st5 st10 st80">效果拔群</text>
</g>
<g class="st81">
	<text transform="matrix(1 0 0 1 142.3921 299.6762)" class="st7 st10 st82">修丽可单场</text>
</g>
<g>
	<path class="st83" d="M48.5,365.6c-3.2-15.1,6.3-29.8,21.3-33.1c15-3.2,29.8,6.3,33,21.3c3.2,15-6.3,29.8-21.3,33
		C66.5,390.1,51.7,380.6,48.5,365.6"/>
	<polygon class="st84" points="59.7,351.3 69.7,349.4 70.9,353.8 60.3,356.3 59.7,351.3 59.7,351.3 	"/>
	<polygon class="st84" points="60.3,356.3 65.3,355 66.6,360.6 61.6,361.9 60.3,356.3 60.3,356.3 	"/>
	<polygon class="st84" points="76.5,347.5 86.5,345.6 87.8,350.6 77.2,352.5 76.5,347.5 76.5,347.5 	"/>
	<polygon class="st84" points="77.2,352.5 82.2,351.3 83.4,356.9 78.4,358.1 77.2,352.5 77.2,352.5 	"/>
	<polygon class="st84" points="57.8,364.4 63.4,363.1 64.1,368.1 59.1,369.4 57.8,364.4 57.8,364.4 	"/>
	<polygon class="st84" points="64.1,368.1 69.1,366.9 70.3,371.9 65.3,373.1 64.1,368.1 64.1,368.1 	"/>
	<polygon class="st84" points="82.8,364.4 87.8,363.1 89,368.1 84,369.4 82.8,364.4 82.8,364.4 	"/>
	<polygon class="st84" points="85.9,353.8 90.9,352.5 92.8,361.9 87.8,363.1 85.9,353.8 85.9,353.8 	"/>
	<polygon class="st84" points="70.3,371.9 84,369.4 84.6,374.4 71.5,377.5 70.3,371.9 70.3,371.9 	"/>
</g>
<g>
	<defs>
		<path id="SVGID_86_" d="M736.6-38.2H309.7c-5.2,0-9.5-4.2-9.5-9.5v-313.4c0-5.2,4.2-9.5,9.5-9.5h426.9c5.2,0,9.5,4.2,9.5,9.5
			v313.4C746.1-42.4,741.8-38.2,736.6-38.2z"/>
	</defs>
	<clipPath id="SVGID_9_">
		<use xlink:href="#SVGID_86_"  style="overflow:visible;"/>
	</clipPath>
	<g transform="matrix(1 0 0 1 0 0)" style="clip-path:url(#SVGID_9_);">
		
			<image style="overflow:visible;" width="1434" height="1069" xlink:href="2401F50.jpg"  transform="matrix(0.4222 0 0 0.4222 300.2601 -370.5381)">
		</image>
	</g>
</g>
</svg>
